<svg xmlns="http://www.w3.org/2000/svg" xmlns:xlink="http://www.w3.org/1999/xlink" version="1.1" x="0px" y="0px" viewBox="0 0 360.461 333.66125" style="enable-background:new 0 0 360.461 266.929;" xml:space="preserve"><g><path d="M53.768,262.733c14.102-15.855,22.569-32.306,27.411-47.21c2.297-7.059,3.785-13.76,4.724-19.926   c6.782,14.089,14.036,34.097,18.18,60.564c0.964,6.167,6.282,10.573,12.336,10.573c0.642,0,1.292-0.05,1.945-0.152   c6.82-1.067,11.486-7.46,10.421-14.28c-6.261-40.105-19.233-67.496-28.908-83.308c-1.037-0.313-2.022-0.79-2.923-1.433   c-10.688-7.622-18.611-16.599-23.541-26.68c-3.978-8.097-5.99-16.796-5.986-25.855c0.027-11.936,3.494-20.62,4.556-22.997   l0.013-0.025l0.044-0.101c1.644-3.489,5.195-5.744,9.055-5.744c1.477,0,2.909,0.322,4.255,0.955   c4.975,2.341,7.128,8.299,4.798,13.284c-0.067,0.162-0.162,0.391-0.284,0.711c-0.233,0.61-0.591,1.626-0.961,2.976   c-0.673,2.448-1.475,6.333-1.473,10.943c0.007,5.982,1.334,11.719,3.941,17.049c0.063,0.128,0.132,0.254,0.196,0.382   c1.207-10.423,3.492-20.548,5.076-28.64c2.871-9.953-0.883-21.865-9.42-23.992c-3.633-0.906-7.96-0.581-12.122,1.213   c0.084-0.32,0.128-0.491,0.128-0.491s-23.833-50.583-57.5-18.583c-15.998,15.207-1.576,30.754,3.09,30.754   c4.668,0-32,12.667-17.332,48c14.666,35.336,44.576,30.91,48.576,22.246c0.735-1.593,1.982-5.387,3.528-10.512   c0.002,0.015,0.003,0.028,0.005,0.043c1.087,5.591,3.128,9.437,5.712,12.074c0.253,1.352,1.002,5.96,1,12.708   c0.002,7.853-1.012,18.562-4.9,30.506c-3.9,11.954-10.624,25.159-22.326,38.339c-4.587,5.16-4.121,13.061,1.039,17.647   c2.381,2.115,5.347,3.156,8.3,3.156C47.866,266.93,51.298,265.512,53.768,262.733z M32.818,80.274c0-4.64,3.76-8.4,8.4-8.4   s8.4,3.76,8.4,8.4c0,4.641-3.76,8.401-8.4,8.401S32.818,84.915,32.818,80.274z M23.483,76.187c0-7.993,6.478-14.464,14.468-14.464   c5.903,0,10.972,3.537,13.222,8.605l-1.336,1.351c-2.208-3.127-5.842-5.176-9.961-5.176c-6.733,0-12.191,5.464-12.191,12.192   c0,4.17,2.093,7.844,5.281,10.042l-0.732,0.74C27.089,87.261,23.483,82.148,23.483,76.187z"/><ellipse transform="matrix(0.2268 -0.9739 0.9739 0.2268 20.7001 127.9353)" cx="90.924" cy="50.931" rx="22.495" ry="22.495"/><path d="M85.428,115.028c-0.002-4.663,0.777-8.688,1.544-11.473c0.383-1.393,0.759-2.473,1.021-3.164   c0.133-0.345,0.235-0.593,0.294-0.733c0.022-0.048,0.038-0.084,0.048-0.106c1.868-3.996,0.15-8.75-3.84-10.629   c-3.999-1.882-8.765-0.166-10.646,3.833v-0.003c-0.29,0.664-4.393,9.414-4.423,22.275c-0.004,7.342,1.403,16.058,5.782,24.975   c4.362,8.921,11.681,17.925,22.908,25.93c1.407,1.006,3.032,1.489,4.641,1.489c2.496,0.001,4.956-1.163,6.519-3.348   c2.567-3.597,1.735-8.594-1.859-11.162c-9.323-6.671-14.675-13.519-17.844-19.955C86.422,126.52,85.434,120.378,85.428,115.028z"/><polygon points="297.115,114.512 291.057,122.252 303.174,122.252  "/><polygon points="305.117,124.734 289.113,124.734 285.091,129.874 309.141,129.874  "/><polygon points="225.852,99.481 203.281,99.481 197.606,106.731 231.526,106.731  "/><polygon points="214.566,85.064 206.021,95.981 223.111,95.981  "/><polygon points="360.461,184.443 351.854,184.443 311.082,132.355 283.148,132.355 269.27,150.086 296.15,184.426 296.164,184.443    292.354,184.443 234.266,110.231 194.867,110.231 136.777,184.443 132.969,184.443 122.412,184.443 122.414,190.728    360.461,190.728  "/><path d="M223.893,35.178c14.52,2.853,15.096,5.57,2.766,13.693c14.42-3.18,15.936-0.954,7.537,11.181   c12.137-8.396,14.361-6.884,11.182,7.54c8.123-12.332,10.84-11.754,13.693,2.764c2.854-14.518,5.57-15.096,13.693-2.764   c-3.18-14.424-0.955-15.935,11.182-7.54c-8.398-12.135-6.883-14.36,7.537-11.181c-12.33-8.123-11.752-10.841,2.766-13.693   c-14.518-2.852-15.096-5.568-2.766-13.691c-14.42,3.179-15.936,0.953-7.537-11.183c-12.137,8.397-14.361,6.884-11.182-7.539   C264.641,15.096,261.924,14.519,259.07,0c-2.854,14.519-5.57,15.096-13.693,2.765c3.18,14.423,0.955,15.936-11.182,7.539   c8.398,12.136,6.883,14.361-7.537,11.183C238.988,29.609,238.412,32.326,223.893,35.178z M259.07,23.491   c6.455,0,11.688,5.232,11.688,11.687c0,6.455-5.232,11.688-11.688,11.688c-6.455,0-11.687-5.232-11.687-11.688   C247.383,28.723,252.615,23.491,259.07,23.491z"/></g><text x="0" y="281.929" fill="#000000" font-size="5px" font-weight="bold" font-family="'Helvetica Neue', Helvetica, Arial-Unicode, Arial, Sans-serif">Created by Gan Khoon Lay</text><text x="0" y="286.929" fill="#000000" font-size="5px" font-weight="bold" font-family="'Helvetica Neue', Helvetica, Arial-Unicode, Arial, Sans-serif">from the Noun Project</text></svg>